#!OML:ASF F:\VICON\USERDATA\INSTALL\rory3\rory3.ASF
:FULLY-SPECIFIED
:DEGREES
122
root -0.0563677 18.0734 26.4678 1.25831 3.23361 -4.82851
lowerback 11.6023 2.28193 5.5236
upperback -1.20487 3.89325 0.876793
thorax -7.49701 1.68595 -2.86339
lowerneck -17.4491 -5.0585 -2.60706
upperneck 11.079 -6.94917 4.9391
head 6.48644 -3.0495 1.26618
rclavicle 4.3773e-014 1.5002e-014
rhumerus -36.4871 19.4615 -101.22
rradius 105.677
rwrist -7.92255
rhand -21.8234 35.8583
rfingers 7.12502
rthumb 4.57927 5.92784
lclavicle 4.3773e-014 1.5002e-014
lhumerus -69.2881 -6.50216 96.0743
lradius 112.598
lwrist 25.388
lhand -29.6504 3.79436
lfingers 7.12502
lthumb -2.97981 33.7533
rfemur 8.36174 4.31982 32.5048
rtibia 63.3489
rfoot 14.5796 -9.62748
rtoes 8.32288
lfemur -28.787 4.44506 -24.5302
ltibia 25.8772
lfoot 4.01433 -17.6471
ltoes -12.9582
123
root -0.0746414 17.9507 26.9426 0.931437 3.59616 -4.7451
lowerback 11.905 2.17741 5.25523
upperback -1.25319 3.73741 0.863046
thorax -7.75039 1.61116 -2.71994
lowerneck -17.5565 -5.04229 -2.54197
upperneck 11.6173 -6.95586 4.85193
head 6.67252 -3.04612 1.21993
rclavicle 2.78764e-016 1.1045e-014
rhumerus -37.1454 18.9402 -101.402
rradius 105.083
rwrist -7.68213
rhand -21.6223 36.0986
rfingers 7.12502
rthumb 4.7735 6.17234
lclavicle 2.78764e-016 1.1045e-014
lhumerus -68.7903 -6.64963 96.3654
lradius 112.429
lwrist 25.0232
lhand -29.9746 3.12866
lfingers 7.12502
lthumb -3.29294 33.083
rfemur 7.15178 3.0255 31.6098
rtibia 66.6026
rfoot 13.7582 -10.3563
rtoes 9.01436
lfemur -28.5518 4.35553 -24.8379
ltibia 27.5274
lfoot 3.1421 -19.2339
ltoes -2.84753
124
root -0.0905872 17.8441 27.4157 0.71537 3.85663 -4.57739
lowerback 12.0472 2.06714 4.83867
upperback -1.31774 3.53954 0.837344
thorax -7.93912 1.5253 -2.48916
lowerneck -16.9446 -4.96455 -2.37974
upperneck 11.5878 -6.88159 4.74479
head 6.54875 -3.02385 1.18127
rclavicle -1.12826e-014 -7.30534e-015
rhumerus -37.7802 18.5712 -101.594
rradius 104.477
rwrist -7.37536
rhand -22.2267 35.5021
rfingers 7.12502
rthumb 4.18985 5.5636
lclavicle -1.12826e-014 -7.30534e-015
lhumerus -68.3084 -6.77256 96.6081
lradius 112.396
lwrist 24.7678
lhand -30.1247 2.96115
lfingers 7.12502
lthumb -3.43785 32.9132
rfemur 5.8719 1.62802 30.4287
rtibia 69.7496
rfoot 12.5945 -10.9996
rtoes 8.79513
lfemur -28.048 3.69193 -24.8335
ltibia 30.0282
lfoot 0.940003 -19.1859
ltoes 7.69388
125
root -0.114068 17.7183 27.8815 0.344863 3.95683 -4.63133
lowerback 12.2849 2.013 4.54628
upperback -1.15634 3.43719 0.9102
thorax -7.92885 1.49244 -2.2374
lowerneck -16.6468 -4.98033 -2.52015
upperneck 11.436 -6.90251 4.96796
head 6.46492 -3.02911 1.28006
rclavicle -4.59379e-015 2.71838e-014
rhumerus -38.0082 17.9924 -101.542
rradius 103.759
rwrist -7.07219
rhand -22.5397 36.576
rfingers 7.12502
rthumb 3.88762 6.63167
lclavicle -4.59379e-015 2.71838e-014
lhumerus -67.4642 -6.96665 96.9764
lradius 112.461
lwrist 24.3808
lhand -30.0196 3.3432
lfingers 7.12502
lthumb -3.33636 33.2968
rfemur 4.69237 0.377471 29.5701
rtibia 72.8328
rfoot 11.0586 -11.8341
rtoes 7.56725
lfemur -27.3886 3.45883 -24.7454
ltibia 32.9675
lfoot -3.21947 -17.9271
ltoes 11.2753
126
root -0.133004 17.5737 28.3378 0.0758103 4.0531 -4.81257
lowerback 12.6661 1.88897 4.44525
upperback -1.05122 3.28132 0.995279
thorax -8.05408 1.42042 -2.07722
lowerneck -16.873 -4.97056 -2.66619
upperneck 11.5437 -6.88928 5.1719
head 6.54996 -3.00578 1.36421
rclavicle 1.46697e-014 -5.36719e-015
rhumerus -38.2563 17.414 -101.556
rradius 103.115
rwrist -6.80227
rhand -21.8564 37.7613
rfingers 7.12502
rthumb 4.54739 7.83011
lclavicle 1.46697e-014 -5.36719e-015
lhumerus -66.3577 -7.0645 97.3466
lradius 112.433
lwrist 23.9253
lhand -29.786 4.17525
lfingers 7.12502
lthumb -3.11081 34.1323
rfemur 3.01674 -0.731365 28.8883
rtibia 75.962
rfoot 9.76979 -12.3542
rtoes 8.72755
lfemur -26.9095 3.41596 -24.7358
ltibia 36.2558
lfoot -8.25416 -15.8247
ltoes 7.57981
127
root -0.141419 17.4559 28.79 0.0248061 4.25105 -4.66584
lowerback 13.0683 1.69836 4.23552
upperback -0.943326 3.00287 0.872848
thorax -8.1879 1.28881 -2.05235
lowerneck -17.7195 -4.91707 -2.58107
upperneck 11.9243 -6.86353 5.2951
head 6.81526 -2.95571 1.37317
rclavicle 2.49475e-014 -1.59028e-014
rhumerus -38.0207 17.2542 -101.627
rradius 102.235
rwrist -6.66749
rhand -21.0416 37.7951
rfingers 7.12502
rthumb 5.3342 7.88222
lclavicle 2.49475e-014 -1.59028e-014
lhumerus -64.7641 -7.29546 97.5329
lradius 112.164
lwrist 23.6695
lhand -29.3709 4.23637
lfingers 7.12502
lthumb -2.70994 34.1989
rfemur 1.15754 -1.86173 27.7785
rtibia 78.9762
rfoot 8.54887 -12.2033
rtoes 11.1508
lfemur -26.649 2.73827 -24.9919
ltibia 39.2331
lfoot -11.3663 -13.4691
ltoes 8.1041
128
root -0.149402 17.3323 29.2231 0.14801 4.3293 -4.11808
lowerback 13.368 1.58551 3.56843
upperback -0.824692 2.74207 0.692914
thorax -8.2665 1.1866 -1.82806
lowerneck -18.7545 -4.82996 -2.50091
upperneck 12.4714 -6.79112 5.36153
head 7.16359 -2.88067 1.36674
rclavicle -1.58407e-014 9.64106e-015
rhumerus -37.5222 17.5162 -101.633
rradius 101.006
rwrist -6.0798
rhand -21.6231 35.215
rfingers 7.12502
rthumb 4.77272 5.2888
lclavicle -1.58407e-014 9.64106e-015
lhumerus -63.0341 -7.572 97.8331
lradius 111.886
lwrist 23.5482
lhand -29.0474 3.09433
lfingers 7.12502
lthumb -2.39745 33.0606
rfemur -0.942689 -2.83944 26.2268
rtibia 82.0993
rfoot 7.06348 -11.6821
rtoes 9.41355
lfemur -26.5635 1.76073 -25.5712
ltibia 41.8155
lfoot -13.071 -10.9181
ltoes 13.8311
129
root -0.161964 17.2113 29.6572 0.430853 4.06079 -3.27774
lowerback 13.4127 1.6637 2.45956
upperback -0.802497 2.64937 0.461954
thorax -8.30941 1.18428 -1.43319
lowerneck -19.1687 -4.7578 -2.27535
upperneck 12.6475 -6.73368 5.22955
head 7.2755 -2.8431 1.28606
rclavicle -2.8948e-015 2.05742e-014
rhumerus -37.4196 17.3174 -101.638
rradius 100.001
rwrist -5.89135
rhand -21.3405 34.6969
rfingers 7.12502
rthumb 5.04558 4.77693
lclavicle -2.8948e-015 2.05742e-014
lhumerus -61.5176 -7.91156 98.228
lradius 111.632
lwrist 23.7897
lhand -28.7399 2.16921
lfingers 7.12502
lthumb -2.10052 32.1386
rfemur -3.56815 -3.44528 24.3872
rtibia 85.2423
rfoot 6.11468 -10.7834
rtoes 7.50106
lfemur -26.1485 1.20867 -26.5716
ltibia 43.8236
lfoot -15.3319 -8.15938
ltoes 14.1155
130
root -0.173288 17.0744 30.084 0.571164 3.52665 -2.20847
lowerback 13.5435 1.79769 1.21915
upperback -0.765799 2.59961 0.111902
thorax -8.38317 1.20533 -1.10184
lowerneck -19.0362 -4.70386 -2.16286
upperneck 12.3366 -6.68547 5.29423
head 7.14858 -2.81725 1.29975
rclavicle 2.08972e-014 1.39149e-015
rhumerus -37.6966 16.8635 -101.87
rradius 99.1612
rwrist -5.87057
rhand -21.587 35.3821
rfingers 7.12502
rthumb 4.80756 5.45663
lclavicle 2.08972e-014 1.39149e-015
lhumerus -59.8952 -8.39862 98.5068
lradius 111.354
lwrist 24.4498
lhand -28.368 2.44615
lfingers 7.12502
lthumb -1.74129 32.4188
rfemur -6.3782 -3.81236 22.2828
rtibia 88.389
rfoot 4.99305 -9.48027
rtoes 7.12819
lfemur -25.0905 1.00139 -27.9739
ltibia 45.4911
lfoot -18.185 -4.24246
ltoes 3.16651
131
root -0.195084 16.9738 30.4745 0.178606 3.71939 -0.887435
lowerback 14.7754 1.69341 -0.275472
upperback -0.642791 2.18296 -0.222318
thorax -9.0042 1.05638 -0.56869
lowerneck -19.0632 -4.68625 -2.24237
upperneck 11.9746 -6.64126 5.4239
head 7.0407 -2.79472 1.36195
rclavicle 1.0312e-015 6.55989e-015
rhumerus -38.0991 16.4965 -102.05
rradius 98.4291
rwrist -5.95829
rhand -21.6713 35.5546
rfingers 7.12502
rthumb 4.72619 5.62731
lclavicle 1.0312e-015 6.55989e-015
lhumerus -57.8997 -8.98986 98.7691
lradius 111.007
lwrist 25.3851
lhand -28.1712 2.70347
lfingers 7.12502
lthumb -1.55127 32.6776
rfemur -8.61856 -4.93241 19.8607
rtibia 91.1932
rfoot 3.50903 -8.05681
rtoes 5.98284
lfemur -23.8296 -0.345497 -29.2382
ltibia 46.8238
lfoot -19.4301 -3.09423
ltoes 5.70462
